# xmcd
#
# Track frame offsets:
#	150
#	14261
#	36463
#	51056
#	70210
#	89081
#	106497
#	119605
#	134411
#	155214
#	169879
#	181619
#	195269
#	212975
#	230657
#	245875
#	264123
#	283469
#	296908
#	307964
#	319784
#	334255
#
# Disc length: 4595 seconds
#
# Revision: 0
# Processed by: cddbd v1.5.1PL0 Copyright (c) Steve Scherf et al.
# Submitted via: audiograbber 1.83.01
#
DISCID=5d11f116
DTITLE=Various Artist - First Ladies Of Country
DYEAR=2004
DGENRE=Country
TTITLE0=Dolly Parton - I Wiil Always Love You
TTITLE1=Sheryl Crow - Run Baby Run
TTITLE2=Eva Cassidy - It Doesn't Matter Any More
TTITLE3=Katie Melua - Closest Thing To Crazy
TTITLE4=Juice Newton - Angel Of The Morning
TTITLE5=Maria McKee - Show Me Heaven
TTITLE6=Tanya Tucker - I'm So Lonesome I Could Cry
TTITLE7=Martina McBride - Safe In The Arms Of Love
TTITLE8=Stevie Nicks - Rooms On Fire
TTITLE9=Deana Carter - Did I Shave My Legs For This
TTITLE10=Patty Loveless - Wine, Women and Song
TTITLE11=Loretta Lynn - Coal Miner's Daughter
TTITLE12=The Judds - Love Can Build A Bridge
TTITLE13=Allison Moorer - A Soft Place To Fall
TTITLE14=Connie Francis - He Thinks I Still Care
TTITLE15=Indigo Girls - Closer To Fine
TTITLE16=Mindy McCready - Oh Romeo
TTITLE17=Lacy J. Dalton - Dream Baby (How Long Must I Dream)
TTITLE18=Dolly Parton, Tammy Wynette and Loretta Lynn - Silver Threads and Golden N
TTITLE18=eedles
TTITLE19=Patsy Cline - Walking After Midnight
TTITLE20=Tammy Wynette - No Charge
TTITLE21=Dolly Parton, Tammy Wynette, Patsy Cline and Loretta Lynne - Lovesick Bl
TTITLE21=ues
EXTD=Supplied With Track Names!
EXTT0=
EXTT1=
EXTT2=
EXTT3=
EXTT4=
EXTT5=
EXTT6=
EXTT7=
EXTT8=
EXTT9=
EXTT10=
EXTT11=
EXTT12=
EXTT13=
EXTT14=
EXTT15=
EXTT16=
EXTT17=
EXTT18=
EXTT19=
EXTT20=
EXTT21=
PLAYORDER=
